<svg width="1440" height="1024" viewBox="0 0 1440 1024" fill="none" xmlns="http://www.w3.org/2000/svg">
<g clip-path="url(#clip0_1_2)">
<rect width="1440" height="1024" fill="#26003E"/>
<g filter="url(#filter0_d_1_2)">
<path d="M708.744 699.935C586.437 566.82 660.251 299.99 873.612 103.954C1086.97 -92.0816 1359.08 -143.089 1481.39 -9.97289C1603.7 123.143 1627.86 277.874 1414.5 473.91C1201.14 669.946 831.051 833.051 708.744 699.935Z" fill="#12164B"/>
</g>
<g filter="url(#filter1_d_1_2)">
<path d="M841.763 399.965C965.053 614.823 861.319 905.877 610.066 1050.05C358.813 1194.23 55.1859 1136.93 -68.1047 922.069C-191.395 707.211 -204.9 509.12 46.353 364.946C297.606 220.771 718.472 185.107 841.763 399.965Z" fill="#111448"/>
</g>
<g filter="url(#filter2_d_1_2)">
<ellipse cx="891.464" cy="558.882" rx="311.5" ry="231" transform="rotate(-24.6543 891.464 558.882)" fill="#FF4400"/>
</g>
<g filter="url(#filter3_d_1_2)">
<path d="M-50 943C-50 1228 467.069 1060.5 703.171 1060.5C1130.17 1060.5 1171.67 1053.22 1171.67 958.5C1171.67 863.784 1281.7 669.917 1208 659C192 508.5 -50 848.284 -50 943Z" fill="#15164B"/>
</g>
<g filter="url(#filter4_d_1_2)">
<path d="M1512 588.5C1512 1132 1537.5 1053 963 1053C852.819 1053 880 731 973 566C1066 401 1331.32 185 1441.5 185C1478.5 185 1512 439.383 1512 588.5Z" fill="#10154D"/>
</g>
</g>
<defs>
<filter id="filter0_d_1_2" x="602.696" y="-115.114" width="1018.64" height="926.466" filterUnits="userSpaceOnUse" color-interpolation-filters="sRGB">
<feFlood flood-opacity="0" result="BackgroundImageFix"/>
<feColorMatrix in="SourceAlpha" type="matrix" values="0 0 0 0 0 0 0 0 0 0 0 0 0 0 0 0 0 0 127 0" result="hardAlpha"/>
<feMorphology radius="8" operator="erode" in="SourceAlpha" result="effect1_dropShadow_1_2"/>
<feOffset dy="16"/>
<feGaussianBlur stdDeviation="27.5"/>
<feComposite in2="hardAlpha" operator="out"/>
<feColorMatrix type="matrix" values="0 0 0 0 0.0470588 0 0 0 0 0.0470588 0 0 0 0 0.0509804 0 0 0 0.4 0"/>
<feBlend mode="normal" in2="BackgroundImageFix" result="effect1_dropShadow_1_2"/>
<feBlend mode="normal" in="SourceGraphic" in2="effect1_dropShadow_1_2" result="shape"/>
</filter>
<filter id="filter1_d_1_2" x="-196.03" y="221.718" width="1131.83" height="965.952" filterUnits="userSpaceOnUse" color-interpolation-filters="sRGB">
<feFlood flood-opacity="0" result="BackgroundImageFix"/>
<feColorMatrix in="SourceAlpha" type="matrix" values="0 0 0 0 0 0 0 0 0 0 0 0 0 0 0 0 0 0 127 0" result="hardAlpha"/>
<feMorphology radius="8" operator="erode" in="SourceAlpha" result="effect1_dropShadow_1_2"/>
<feOffset dy="16"/>
<feGaussianBlur stdDeviation="25.05"/>
<feComposite in2="hardAlpha" operator="out"/>
<feColorMatrix type="matrix" values="0 0 0 0 0.0470588 0 0 0 0 0.0470588 0 0 0 0 0.0509804 0 0 0 0.4 0"/>
<feBlend mode="normal" in2="BackgroundImageFix" result="effect1_dropShadow_1_2"/>
<feBlend mode="normal" in="SourceGraphic" in2="effect1_dropShadow_1_2" result="shape"/>
</filter>
<filter id="filter2_d_1_2" x="550.329" y="285.947" width="682.27" height="577.87" filterUnits="userSpaceOnUse" color-interpolation-filters="sRGB">
<feFlood flood-opacity="0" result="BackgroundImageFix"/>
<feColorMatrix in="SourceAlpha" type="matrix" values="0 0 0 0 0 0 0 0 0 0 0 0 0 0 0 0 0 0 127 0" result="hardAlpha"/>
<feMorphology radius="10" operator="dilate" in="SourceAlpha" result="effect1_dropShadow_1_2"/>
<feOffset dy="16"/>
<feGaussianBlur stdDeviation="16"/>
<feComposite in2="hardAlpha" operator="out"/>
<feColorMatrix type="matrix" values="0 0 0 0 0.0470588 0 0 0 0 0.0470588 0 0 0 0 0.0509804 0 0 0 0.4 0"/>
<feBlend mode="normal" in2="BackgroundImageFix" result="effect1_dropShadow_1_2"/>
<feBlend mode="normal" in="SourceGraphic" in2="effect1_dropShadow_1_2" result="shape"/>
</filter>
<filter id="filter3_d_1_2" x="-104.9" y="582.187" width="1393.21" height="598.115" filterUnits="userSpaceOnUse" color-interpolation-filters="sRGB">
<feFlood flood-opacity="0" result="BackgroundImageFix"/>
<feColorMatrix in="SourceAlpha" type="matrix" values="0 0 0 0 0 0 0 0 0 0 0 0 0 0 0 0 0 0 127 0" result="hardAlpha"/>
<feMorphology radius="8" operator="erode" in="SourceAlpha" result="effect1_dropShadow_1_2"/>
<feOffset dy="16"/>
<feGaussianBlur stdDeviation="31.45"/>
<feComposite in2="hardAlpha" operator="out"/>
<feColorMatrix type="matrix" values="0 0 0 0 0.0470588 0 0 0 0 0.0470588 0 0 0 0 0.0509804 0 0 0 0.4 0"/>
<feBlend mode="normal" in2="BackgroundImageFix" result="effect1_dropShadow_1_2"/>
<feBlend mode="normal" in="SourceGraphic" in2="effect1_dropShadow_1_2" result="shape"/>
</filter>
<filter id="filter4_d_1_2" x="867.176" y="177" width="668.994" height="920.008" filterUnits="userSpaceOnUse" color-interpolation-filters="sRGB">
<feFlood flood-opacity="0" result="BackgroundImageFix"/>
<feColorMatrix in="SourceAlpha" type="matrix" values="0 0 0 0 0 0 0 0 0 0 0 0 0 0 0 0 0 0 127 0" result="hardAlpha"/>
<feMorphology radius="8" operator="erode" in="SourceAlpha" result="effect1_dropShadow_1_2"/>
<feOffset dy="16"/>
<feGaussianBlur stdDeviation="16"/>
<feComposite in2="hardAlpha" operator="out"/>
<feColorMatrix type="matrix" values="0 0 0 0 0.0470588 0 0 0 0 0.0470588 0 0 0 0 0.0509804 0 0 0 0.4 0"/>
<feBlend mode="normal" in2="BackgroundImageFix" result="effect1_dropShadow_1_2"/>
<feBlend mode="normal" in="SourceGraphic" in2="effect1_dropShadow_1_2" result="shape"/>
</filter>
<clipPath id="clip0_1_2">
<rect width="1440" height="1024" fill="white"/>
</clipPath>
</defs>
</svg>
